<?xml version="1.0" encoding="UTF-8" standalone="no"?>
<svg
   width="1020"
   height="315"
   clip-rule="evenodd"
   version="1.1"
   id="svg2"
   xmlns="http://www.w3.org/2000/svg"
   xmlns:svg="http://www.w3.org/2000/svg">
  <defs
     id="defs2" />
  <g
     id="g1"
     transform="matrix(1.0179641,0,0,1.0606061,1.0179641,1.0606061)">
    <title
       id="title1">background</title>
    <rect
       x="-1"
       y="-1"
       width="1002"
       height="297"
       id="canvas_background"
       fill="none" />
    <rect
       style="fill:#e5e5e5;fill-opacity:1;stroke:#e5e5e5;stroke-width:1.55412;stroke-dasharray:none;stroke-opacity:1"
       id="rect7"
       width="998.44592"
       height="293.44589"
       x="0.77705789"
       y="0.77705628" />
  </g>
  <g
     id="g2"
     transform="translate(11,11)">
    <title
       id="title2">Layer 1</title>
    <g
       transform="matrix(0,-1,2.2641602,0,-240.34782,164.5196)"
       id="svg_17">
      <path
         d="m 44.378,108.3156 c 0,0 -38.844,6.069 -38.844,108.425 0,25.913 17.405,46.951 38.844,46.951 21.439,0 38.844,-21.038 38.844,-46.951 0,-102.356 -38.844,-108.425 -38.844,-108.425 z"
         stroke-width="4.4px"
         stroke="#000000"
         fill="none"
         id="svg_18" />
    </g>
    <path
       d="m 828.8615,245.3086 v 33.234 h -189.53 v -82.125 l -10.914,-3.217 v 93.51 h 211.126 v -41.402 h 11.31 v 48.867 h -231.233 v -97.758"
       stroke-width="1.59px"
       stroke="#000000"
       fill="none"
       id="svg_2" />
    <g
       transform="matrix(1.05857,0,0,1.03847,8.3042,44.5524)"
       id="svg_3">
      <path
         d="m 889.62057,72.789 c 0,-27.415 -22.224,-49.64 -49.64,-49.64 v 7.667 c 23.182,0 41.974,18.792 41.974,41.973 z"
         stroke-width="3.85px"
         stroke="#000000"
         fill="#000000"
         id="svg_4" />
    </g>
    <g
       transform="matrix(1.55195,0,0,1.52248,-299.3905,9.3218)"
       id="svg_5">
      <path
         d="m 820.8473,72.789 c 0,-27.415 -22.224,-49.64 -49.64,-49.64 v 5.394 c 24.437,0 44.246,19.81 44.246,44.246 z"
         stroke-width="2.63px"
         stroke="#000000"
         fill="#000000"
         id="svg_6" />
    </g>
    <g
       transform="matrix(2.01578,0,0,1.97751,-588.6625,-23.7993)"
       id="svg_7">
      <path
         d="m 786.89467,72.789 c 0,-27.415 -22.224,-49.64 -49.64,-49.64 v 4.129 c 25.136,0 45.512,20.376 45.512,45.511 z"
         stroke-width="2.02px"
         stroke="#000000"
         fill="#000000"
         id="svg_8" />
    </g>
    <g
       transform="translate(120.7872,-33.6873)"
       id="svg_9">
      <text
         x="335.66901"
         y="101.377"
         fill="#000000"
         font-size="89.475px"
         font-weight="700"
         font-family="Arial-BoldMT, Arial, sans-serif"
         id="svg_10">RMTS</text>
    </g>
    <g
       transform="matrix(0,-1,3.1323194,0,-1135.4708,174.0376)"
       id="svg_11">
      <path
         d="m 53.895,391.39374 c 0,0 -15.672,21.98 -17.937,59.988 -0.589,9.882 8.037,23.084 17.937,23.084 9.9,0 18.637,-13.209 17.937,-23.084 -2.676,-37.802 -17.937,-59.988 -17.937,-59.988 z"
         stroke-width="4.04px"
         stroke="#000000"
         fill="#000000"
         id="svg_12" />
    </g>
    <rect
       x="368.44699"
       y="206.05701"
       width="72.386002"
       height="21.313999"
       fill="#000000"
       id="svg_13"
       transform="translate(35.3315,-50.0244)" />
    <g
       transform="matrix(1,0,0,1.2439,35.3315,-100.2821)"
       id="svg_14">
      <rect
         x="394.18399"
         y="140.105"
         width="23.323999"
         height="65.952003"
         fill="#000000"
         id="svg_15" />
    </g>
    <path
       d="m 776.7925,84.2516 h -417.225 v 71.781 h 296.271 v -55.999 h 120.954 z"
       stroke-width="4.04px"
       stroke="#000000"
       fill="none"
       id="svg_16" />
    <rect
       x="312.22198"
       y="227.125"
       width="308.285"
       height="20.618"
       fill="#000000"
       id="svg_19"
       transform="translate(35.3315,-50.0244)" />
    <g
       transform="matrix(0.512563,-0.512563,0.707107,0.707107,186.0665,59.1556)"
       id="svg_20">
      <path
         d="m 379.79718,389.05241 h -73.188 v 20.618 h 44.745 z"
         fill="#000000"
         id="svg_21" />
    </g>
    <g
       transform="matrix(0.512563,-0.512563,0.707107,0.707107,186.0665,59.1556)"
       id="svg_22">
      <path
         d="m 614.89418,389.05241 h -157.928 l 28.443,20.618 h 129.485 z"
         fill="#000000"
         id="svg_23" />
    </g>
    <g
       transform="matrix(0.857143,0,0,1,108.4756,-50.0244)"
       id="svg_24">
      <rect
         x="779.17566"
         y="50.023998"
         width="24.631001"
         height="100.033"
         fill="#000000"
         id="svg_25" />
    </g>
    <rect
       x="620.50702"
       y="150.058"
       width="261.755"
       height="145.27499"
       stroke-width="4.04px"
       stroke="#000000"
       fill="none"
       id="svg_26"
       transform="translate(35.3315,-50.0244)" />
    <g
       transform="matrix(1,0,0,1.19367,35.3315,-79.4986)"
       id="svg_27">
      <path
         d="m 882.255,152.19 h -89.477 v 46.5 h 69.376 l 20.101,-16.919 z"
         stroke-width="1.44px"
         stroke="#000000"
         fill="none"
         id="svg_28" />
    </g>
    <g
       transform="matrix(0.371236,0,0,0.714352,330.7065,54.4826)"
       id="svg_29">
      <rect
         x="1180.6364"
         y="152.19"
         width="89.476997"
         height="46.5"
         stroke-width="2.79px"
         stroke="#000000"
         fill="none"
         id="svg_30" />
    </g>
    <g
       transform="matrix(0.510787,0,0,0.404996,346.8695,165.0336)"
       id="svg_31">
      <rect
         x="1012.1058"
         y="152.19"
         width="89.476997"
         height="46.5"
         stroke-width="3.45px"
         stroke="#000000"
         fill="none"
         id="svg_32" />
    </g>
    <g
       transform="matrix(0.359775,0,0,0.404996,392.1135,165.0336)"
       id="svg_33">
      <rect
         x="1200.287"
         y="152.19"
         width="89.476997"
         height="46.5"
         stroke-width="4.15px"
         stroke="#000000"
         fill="none"
         id="svg_34" />
    </g>
    <g
       transform="matrix(0.327416,0,0,0.49311,242.2485,54.8716)"
       id="svg_35">
      <rect
         x="1263.1941"
         y="152.19"
         width="89.476997"
         height="46.5"
         stroke-width="3.79px"
         stroke="#000000"
         fill="none"
         id="svg_36" />
    </g>
    <g
       transform="matrix(0.254382,0,0,0.404996,283.4235,111.0346)"
       id="svg_37">
      <rect
         x="1463.9989"
         y="152.19"
         width="89.476997"
         height="46.5"
         stroke-width="4.7px"
         stroke="#000000"
         fill="none"
         id="svg_38" />
    </g>
    <g
       transform="matrix(0.254382,0,0,0.404996,283.4235,141.7136)"
       id="svg_39">
      <rect
         x="1463.9989"
         y="152.19"
         width="89.476997"
         height="46.5"
         stroke-width="4.7px"
         stroke="#000000"
         fill="none"
         id="svg_40" />
    </g>
  </g>
</svg>
